<?xml version="1.0" standalone="no"?>
<!DOCTYPE svg PUBLIC "-//W3C//DTD SVG 20010904//EN"
 "http://www.w3.org/TR/2001/REC-SVG-20010904/DTD/svg10.dtd">
<svg version="1.0" xmlns="http://www.w3.org/2000/svg"
 width="900.000000pt" height="900.000000pt" viewBox="0 0 900.000000 900.000000"
 preserveAspectRatio="xMidYMid meet">
<metadata>
Created by potrace 1.14, written by Peter Selinger 2001-2017
</metadata>
<g transform="translate(0.000000,900.000000) scale(0.100000,-0.100000)"
fill="#000000" stroke="none">
<path d="M1549 8816 c-2 -2 -29 -6 -59 -9 -210 -23 -452 -113 -645 -242 -340
-227 -576 -593 -645 -999 -17 -107 -18 -224 -16 -3086 1 -1636 5 -2986 8
-3000 3 -14 13 -63 23 -109 55 -269 220 -567 419 -756 152 -144 351 -270 521
-330 28 -9 59 -21 70 -25 31 -13 141 -38 240 -54 78 -13 475 -15 3055 -13
1631 2 2982 6 3002 9 80 14 247 58 308 81 496 187 848 603 955 1131 3 10 8 44
12 75 10 71 11 5958 1 6028 -48 327 -194 626 -417 851 -36 37 -89 85 -116 107
-28 22 -52 42 -55 45 -17 19 -160 106 -231 141 -140 69 -220 95 -449 146 -35
7 -5972 17 -5981 9z"/>
</g>
</svg>
